HIERARCHY
ROOT SpineBase
{
  OFFSET 0.000000 0.000000 0.000000
  CHANNELS 6 Xposition Yposition Zposition Zrotation Xrotation Yrotation
  JOINT SpineMid
  {
    OFFSET 0.000000 32.347404 0.000000
    CHANNELS 3 Zrotation Xrotation Yrotation
    JOINT SpineShoulder
    {
      OFFSET 0.122513 23.992774 -0.813887
      CHANNELS 3 Zrotation Xrotation Yrotation
      JOINT Neck
      {
        OFFSET 0.105062 7.927797 -0.615178
        CHANNELS 3 Zrotation Xrotation Yrotation
        JOINT Head
        {
          OFFSET -5.560608 14.158287 -1.037612
          CHANNELS 3 Zrotation Xrotation Yrotation
          End Site
          {
            OFFSET 0 0 0
          }
        }
      }
      JOINT ShoulderLeft
      {
        OFFSET -17.589949 -6.468978 5.846450
        CHANNELS 3 Zrotation Xrotation Yrotation
        JOINT ElbowLeft
        {
          OFFSET -1.521972 -26.390387 3.590805
          CHANNELS 3 Zrotation Xrotation Yrotation
          JOINT WristLeft
          {
            OFFSET 1.232717 -24.867058 -4.148578
            CHANNELS 3 Zrotation Xrotation Yrotation
            JOINT HandLeft
            {
              OFFSET -0.249946 -5.465398 -1.576999
              CHANNELS 3 Zrotation Xrotation Yrotation
              JOINT HandTipLeft
              {
                OFFSET 1.419529 -6.481791 -2.563649
                CHANNELS 3 Zrotation Xrotation Yrotation
                End Site
                {
                  OFFSET 0 0 0
                }
              }
              JOINT ThumbLeft
              {
                OFFSET -1.358348 -2.475989 -1.847998
                CHANNELS 3 Zrotation Xrotation Yrotation
                End Site
                {
                  OFFSET 0 0 0
                }
              }
            }
          }
        }
      }
      JOINT ShoulderRight
      {
        OFFSET 15.601168 -3.168558 -7.772841
        CHANNELS 3 Zrotation Xrotation Yrotation
        JOINT ElbowRight
        {
          OFFSET 7.426665 -26.542137 -0.049973
          CHANNELS 3 Zrotation Xrotation Yrotation
          JOINT WristRight
          {
            OFFSET -0.614853 -22.612450 -4.904044
            CHANNELS 3 Zrotation Xrotation Yrotation
            JOINT HandRight
            {
              OFFSET -2.263074 -7.761696 -0.785973
              CHANNELS 3 Zrotation Xrotation Yrotation
              JOINT HandTipRight
              {
                OFFSET -0.265170 -7.122897 -1.070801
                CHANNELS 3 Zrotation Xrotation Yrotation
                End Site
                {
                  OFFSET 0 0 0
                }
              }
              JOINT ThumbRight
              {
                OFFSET 3.628441 -1.461921 0.618020
                CHANNELS 3 Zrotation Xrotation Yrotation
                End Site
                {
                  OFFSET 0 0 0
                }
              }
            }
          }
        }
      }
    }
  }
  JOINT HipLeft
  {
    OFFSET -6.359248 0.004473 -1.283830
    CHANNELS 3 Zrotation Xrotation Yrotation
    JOINT KneeLeft
    {
      OFFSET 1.639954 -33.503866 4.236919
      CHANNELS 3 Zrotation Xrotation Yrotation
      JOINT AnkleLeft
      {
        OFFSET 6.340590 -37.666582 8.553542
        CHANNELS 3 Zrotation Xrotation Yrotation
        JOINT FootLeft
        {
          OFFSET 0.674607 -8.160880 -5.894374
          CHANNELS 3 Zrotation Xrotation Yrotation
          End Site
          {
            OFFSET 0 0 0
          }
        }
      }
    }
  }
  JOINT HipRight
  {
    OFFSET 7.827701 1.876317 -5.964541
    CHANNELS 3 Zrotation Xrotation Yrotation
    JOINT KneeRight
    {
      OFFSET 8.817172 -34.126268 1.544941
      CHANNELS 3 Zrotation Xrotation Yrotation
      JOINT AnkleRight
      {
        OFFSET 3.522239 -37.467821 7.519576
        CHANNELS 3 Zrotation Xrotation Yrotation
        JOINT FootRight
        {
          OFFSET -1.230107 -8.161740 -5.735875
          CHANNELS 3 Zrotation Xrotation Yrotation
          End Site
          {
            OFFSET 0 0 0
          }
        }
      }
    }
  }
}
MOTION
Frames: 16
Frame Time: 0.033333
-66.664910 80.560286 328.738925 -0.297035 0.069271 19.974310 -0.550617 0.287967 -20.004648 -0.242961 0.083819 -0.060550 -1.011359 -0.176461 -0.048548 0.000000 0.000000 0.000000 -2.054388 3.692666 -0.472557 -1.739190 -10.121237 0.700668 5.584745 -15.918360 0.068013 -11.760118 12.651206 5.084556 0.000000 0.000000 0.000000 0.000000 0.000000 0.000000 -94.249041 42.811532 76.149327 2.846724 -4.660106 -15.121176 0.648189 4.276748 -23.562505 -22.162048 15.902942 29.816561 0.000000 0.000000 0.000000 0.000000 0.000000 0.000000 0.255505 -0.166570 -19.973759 -1.124798 1.715196 0.050407 -1.194517 4.176596 2.122156 0.000000 0.000000 0.000000 -0.974318 1.087738 -19.839031 1.582646 -0.762215 -0.114312 -2.143012 7.324243 0.513473 0.000000 0.000000 0.000000
-66.688314 80.539289 328.776994 -0.419177 0.036424 19.952379 -0.522169 0.295642 -19.985709 -0.210464 0.068764 -0.062020 -0.592178 0.129239 0.097278 0.000000 0.000000 0.000000 -1.989426 3.723437 -0.466353 -1.495560 -9.925820 0.707453 4.144056 -22.757104 0.678911 -13.471055 17.903421 7.341511 0.000000 0.000000 0.000000 0.000000 0.000000 0.000000 -93.994935 42.646954 75.704795 2.462713 -4.591146 -15.190568 1.676920 4.967762 -22.849140 -23.705436 15.626516 29.071570 0.000000 0.000000 0.000000 0.000000 0.000000 0.000000 0.381589 -0.177275 -19.951655 -1.200515 1.665351 0.025303 -1.965875 2.985473 2.647573 0.000000 0.000000 0.000000 -0.754498 1.146856 -19.788804 1.517445 -0.861047 -0.141835 -1.085675 4.918339 0.065827 0.000000 0.000000 0.000000
-66.689546 80.519311 328.821678 -0.502040 0.004164 19.856491 -0.482073 0.285147 -19.891087 -0.174099 0.060579 -0.060672 -0.381712 0.427165 0.220292 0.000000 0.000000 0.000000 -1.984536 3.759214 -0.464807 -1.326163 -9.878075 0.703819 3.281944 -29.628982 1.107316 -15.576092 21.142911 9.517623 0.000000 0.000000 0.000000 0.000000 0.000000 0.000000 -93.164172 42.803206 74.951963 1.793340 -4.189163 -15.304572 2.120586 5.241028 -22.496361 -31.677735 14.558763 25.766106 0.000000 0.000000 0.000000 0.000000 0.000000 0.000000 0.470779 -0.174440 -19.855756 -1.270085 1.706089 0.017790 -2.949459 0.754355 3.197086 0.000000 0.000000 0.000000 -0.599599 1.226765 -19.665761 1.479685 -0.958992 -0.167781 0.350066 1.257188 -0.436181 0.000000 0.000000 0.000000
-66.670565 80.502356 328.868171 -0.577137 -0.004410 19.784965 -0.423807 0.265910 -19.820129 -0.129323 0.062446 -0.057713 -0.244870 0.605578 0.300605 0.000000 0.000000 0.000000 -2.015502 3.763759 -0.467131 -1.187695 -9.923899 0.693295 2.530949 -35.133178 1.411280 -18.187361 23.107306 12.272230 0.000000 0.000000 0.000000 0.000000 0.000000 0.000000 -92.866390 42.704982 74.421471 1.828275 -4.045809 -15.065232 2.352170 5.460780 -22.301945 -35.279324 13.563158 23.202543 0.000000 0.000000 0.000000 0.000000 0.000000 0.000000 0.544563 -0.191203 -19.784078 -1.318665 1.707193 0.007626 -3.441240 -0.042902 3.510523 0.000000 0.000000 0.000000 -0.478242 1.270413 -19.573726 1.453583 -1.034227 -0.187599 3.381613 -7.865503 -1.010636 0.000000 0.000000 0.000000
-66.646273 80.483250 328.908377 -0.640766 -0.007741 19.736903 -0.377914 0.250963 -19.772674 -0.111128 0.062769 -0.056942 -0.016711 0.742008 0.371019 0.000000 0.000000 0.000000 -2.018410 3.765068 -0.467328 -1.033346 -9.892111 0.688868 2.936154 -36.053534 1.474603 -15.403149 26.687195 10.260640 0.000000 0.000000 0.000000 0.000000 0.000000 0.000000 -92.466006 42.702628 73.944079 1.823355 -3.966612 -14.916003 3.471786 5.975938 -21.613986 -37.567765 12.779744 20.666157 0.000000 0.000000 0.000000 0.000000 0.000000 0.000000 0.605740 -0.209097 -19.735840 -1.338339 1.696775 0.001543 -4.121111 -0.764451 3.934331 0.000000 0.000000 0.000000 -0.344838 1.258248 -19.515369 1.386367 -1.065263 -0.198879 1.533417 -2.744491 -0.639305 0.000000 0.000000 0.000000
-66.612256 80.470967 328.958733 -0.688813 -0.000057 19.751362 -0.336520 0.229676 -19.787337 -0.098609 0.062952 -0.056064 0.131367 0.855346 0.427285 0.000000 0.000000 0.000000 -2.028951 3.763532 -0.468228 -1.111368 -9.962080 0.686450 3.750375 -38.736452 1.589952 -15.900007 30.940811 11.336886 0.000000 0.000000 0.000000 0.000000 0.000000 0.000000 -92.117188 42.686305 73.499685 1.616004 -3.610700 -14.790424 5.379672 6.022914 -20.713354 -39.725099 12.592115 18.651650 0.000000 0.000000 0.000000 0.000000 0.000000 0.000000 0.648311 -0.232718 -19.750045 -1.335420 1.692232 0.001344 -4.579067 -1.081408 4.220002 0.000000 0.000000 0.000000 -0.249570 1.235421 -19.523496 1.337114 -1.083447 -0.206049 -1.742876 5.858033 0.414597 0.000000 0.000000 0.000000
-66.570933 80.470580 328.985960 -0.743122 0.045415 19.870217 -0.309986 0.210006 -19.907123 -0.084948 0.065784 -0.056308 0.396299 0.867697 0.465383 0.000000 0.000000 0.000000 -2.019683 3.725724 -0.468739 -1.084042 -9.988447 0.682926 3.762020 -41.043795 1.732390 -15.628291 35.808588 12.079516 0.000000 0.000000 0.000000 0.000000 0.000000 0.000000 -92.014169 42.668630 73.354105 1.721147 -3.783437 -14.765152 6.281785 6.648646 -20.141598 -41.148365 8.931215 12.259691 0.000000 0.000000 0.000000 0.000000 0.000000 0.000000 0.683451 -0.295282 -19.868161 -1.397206 1.673327 -0.015279 -4.719298 -0.703305 4.421340 0.000000 0.000000 0.000000 -0.208516 1.110774 -19.657369 1.313161 -1.023871 -0.192710 -2.828915 7.886316 0.943803 0.000000 0.000000 0.000000
-66.533456 80.461372 329.042888 -0.791934 0.072069 19.931301 -0.284672 0.203736 -19.969006 -0.077576 0.074450 -0.057003 0.604732 0.852971 0.488942 0.000000 0.000000 0.000000 -2.004043 3.688239 -0.468720 -1.062562 -10.010246 0.680072 3.708569 -42.860392 1.846087 -15.652280 38.905000 12.702747 0.000000 0.000000 0.000000 0.000000 0.000000 0.000000 -91.646360 42.634625 72.887771 1.853486 -3.235627 -14.349865 7.347352 6.338642 -19.779560 -46.005496 5.753134 4.380309 0.000000 0.000000 0.000000 0.000000 0.000000 0.000000 0.719941 -0.337704 -19.928682 -1.472100 1.755726 -0.016272 -4.721835 0.209006 4.580009 0.000000 0.000000 0.000000 -0.138717 1.073689 -19.713564 0.522679 -0.643920 -0.325607 -5.361653 15.684186 2.532441 0.000000 0.000000 0.000000
-66.498783 80.442669 329.101941 -0.833105 0.103203 19.940257 -0.268122 0.203125 -19.978795 -0.076378 0.083036 -0.058345 0.762805 0.844298 0.514754 0.000000 0.000000 0.000000 -1.979770 3.643616 -0.468221 -1.046164 -10.033832 0.677290 2.993140 -44.023752 1.875758 -14.548469 41.010370 12.253878 0.000000 0.000000 0.000000 0.000000 0.000000 0.000000 -91.520083 42.628812 72.749872 2.083133 -2.968580 -14.078756 8.426748 6.035849 -19.377110 -47.129213 5.815167 3.297585 0.000000 0.000000 0.000000 0.000000 0.000000 0.000000 0.747977 -0.381121 -19.937019 -1.517378 1.628553 -0.049135 -4.506334 1.703937 4.648149 0.000000 0.000000 0.000000 -0.079415 1.062533 -19.711098 0.454416 -0.638959 -0.343460 -7.291953 20.610912 3.556338 0.000000 0.000000 0.000000
-66.470483 80.429987 329.130849 -0.867700 0.153004 19.887713 -0.262394 0.203044 -19.927192 -0.076237 0.095127 -0.060071 0.858786 0.775951 0.520888 0.000000 0.000000 0.000000 -1.950699 3.579643 -0.467932 -1.031705 -10.057485 0.674588 3.422440 -42.548928 1.827962 -17.182793 38.047494 14.277680 0.000000 0.000000 0.000000 0.000000 0.000000 0.000000 -90.756063 42.639569 71.906755 1.781084 -1.509868 -13.490451 9.259024 5.895467 -19.243901 -51.432505 2.314654 -5.446258 0.000000 0.000000 0.000000 0.000000 0.000000 0.000000 0.763923 -0.439028 -19.883628 -1.556658 1.424173 -0.094903 -4.520075 2.711569 4.831017 0.000000 0.000000 0.000000 -0.049393 1.037101 -19.648773 0.433053 -0.633007 -0.352841 -8.267326 22.725064 4.127868 0.000000 0.000000 0.000000
-66.446109 80.402515 329.196376 -0.903118 0.171393 19.839319 -0.251780 0.208146 -19.879608 -0.074145 0.108660 -0.061333 0.948906 0.714670 0.519812 0.000000 0.000000 0.000000 -1.925664 3.539140 -0.467193 -1.021923 -10.080978 0.672119 2.572329 -42.420457 1.785618 -17.355254 37.915915 14.852353 0.000000 0.000000 0.000000 0.000000 0.000000 0.000000 -90.529974 42.892479 72.022525 1.805751 -1.647972 -13.651832 9.149384 5.765513 -19.283963 -52.792052 1.288911 -8.061814 0.000000 0.000000 0.000000 0.000000 0.000000 0.000000 0.791372 -0.467696 -19.834738 -1.588336 1.258619 -0.132024 -4.456735 3.384438 4.908949 0.000000 0.000000 0.000000 0.049160 1.081139 -19.573944 0.365455 -0.689777 -0.381317 -8.164554 22.033997 4.120805 0.000000 0.000000 0.000000
-66.420403 80.365967 329.269828 -0.934645 0.174290 19.690058 -0.235171 0.198800 -19.730719 -0.074210 0.112867 -0.061883 0.969505 0.682627 0.510604 0.000000 0.000000 0.000000 -1.913163 3.534458 -0.466323 -1.014805 -10.102235 0.669960 2.942812 -40.646601 1.718627 -18.285874 36.184197 15.395198 0.000000 0.000000 0.000000 0.000000 0.000000 0.000000 -90.007507 43.170635 71.834080 1.587313 -1.281581 -13.679230 9.405460 5.614374 -19.210048 -52.636039 1.977351 -7.021464 0.000000 0.000000 0.000000 0.000000 0.000000 0.000000 0.990040 0.513492 -19.658885 -1.448563 0.135201 -0.217173 -4.533998 3.620630 5.043485 0.000000 0.000000 0.000000 0.158955 1.200863 -19.382879 0.313496 -0.812311 -0.424235 -6.790033 19.045936 3.342489 0.000000 0.000000 0.000000
-66.402109 80.325661 329.340610 -0.955892 0.162742 19.543025 -0.215722 0.188230 -19.583643 -0.071892 0.122069 -0.061554 0.813410 0.706950 0.507420 0.000000 0.000000 0.000000 -1.916331 3.539506 -0.466419 -1.010808 -10.120177 0.668221 3.229306 -40.013673 1.695834 -19.309778 33.872951 15.777343 0.000000 0.000000 0.000000 0.000000 0.000000 0.000000 -89.412415 43.430988 71.525033 1.359064 -0.789997 -13.626493 8.613173 4.708707 -19.749240 -55.737658 1.228325 -10.595610 0.000000 0.000000 0.000000 0.000000 0.000000 0.000000 1.035049 0.671384 -19.508497 -1.450164 -0.088744 -0.245453 -5.285390 3.558095 5.627503 0.000000 0.000000 0.000000 0.255450 1.326361 -19.198025 0.228134 -0.903335 -0.469901 -4.003804 13.118626 1.887146 0.000000 0.000000 0.000000
-66.389822 80.285173 329.398769 -0.975796 0.154911 19.442566 -0.198560 0.180046 -19.483195 -0.065816 0.135850 -0.061054 0.614760 0.743203 0.510065 0.000000 0.000000 0.000000 -1.921491 3.535111 -0.466978 -1.008103 -10.134555 0.666845 3.268542 -38.782356 1.634076 -19.015765 32.927825 15.302349 0.000000 0.000000 0.000000 0.000000 0.000000 0.000000 -88.879952 43.639428 71.211962 1.179330 -0.323437 -13.542450 7.835640 4.331921 -20.235701 -53.527604 2.073520 -7.078471 0.000000 0.000000 0.000000 0.000000 0.000000 0.000000 1.061553 0.749846 -19.406976 -1.441301 -0.178347 -0.253841 -4.008096 5.013624 4.849094 0.000000 0.000000 0.000000 0.361779 1.445559 -19.059304 0.111531 -1.018352 -0.523377 0.137436 3.493598 0.147049 0.000000 0.000000 0.000000
-66.374963 80.252779 329.437109 -0.966740 0.156107 19.447303 -0.192672 0.196331 -19.487563 -0.056286 0.170651 -0.060151 0.310152 0.736584 0.508230 0.000000 0.000000 0.000000 -1.939766 3.481860 -0.470169 -1.010063 -10.140195 0.666410 3.642584 -37.474057 1.563084 -18.421261 31.517669 14.245646 0.000000 0.000000 0.000000 0.000000 0.000000 0.000000 -88.266138 43.738649 70.633051 1.165451 0.218608 -13.249500 6.880432 3.931200 -20.828526 -52.874550 3.055304 -4.817672 0.000000 0.000000 0.000000 0.000000 0.000000 0.000000 1.046056 0.749967 -19.412659 -1.448443 -0.124693 -0.246721 -3.390925 4.284598 4.330782 0.000000 0.000000 0.000000 0.334282 1.447813 -19.066223 0.055383 -0.932195 -0.529216 2.015423 0.391492 -0.664589 0.000000 0.000000 0.000000
-66.347406 80.232205 329.438160 -0.960749 0.203791 19.512607 -0.197085 0.208611 -19.552865 -0.047026 0.205556 -0.060099 0.079227 0.693882 0.512701 0.000000 0.000000 0.000000 -1.946223 3.389532 -0.473657 -1.009324 -10.150386 0.665490 4.513245 -36.298674 1.480262 -19.986587 30.055279 15.166201 0.000000 0.000000 0.000000 0.000000 0.000000 0.000000 -87.960660 43.773631 70.311959 1.342636 0.147963 -13.144056 5.683975 4.451074 -21.330832 -51.286744 4.396215 -1.382918 0.000000 0.000000 0.000000 0.000000 0.000000 0.000000 0.991630 0.574948 -19.482057 -1.481557 0.146157 -0.218098 -3.233632 3.944798 4.185697 0.000000 0.000000 0.000000 0.219978 1.296488 -19.168110 0.033079 -0.733797 -0.500673 2.443284 1.114762 -1.020193 0.000000 0.000000 0.000000
